<svg version="1.1" viewBox="0.0 0.0 755.9055118110236 377.9527559055118" fill="none" stroke="none" stroke-linecap="square" stroke-miterlimit="10" xmlns:xlink="http://www.w3.org/1999/xlink" xmlns="http://www.w3.org/2000/svg"><clipPath id="p.0"><path d="m0 0l755.9055 0l0 377.95276l-755.9055 0l0 -377.95276z" clip-rule="nonzero"/></clipPath><g clip-path="url(#p.0)"><path fill="#000000" fill-opacity="0.0" d="m0 0l755.9055 0l0 377.95276l-755.9055 0z" fill-rule="evenodd"/><path fill="#000000" fill-opacity="0.0" d="m61.133858 -68.5538l633.6378 0l0 377.95276l-633.6378 0z" fill-rule="evenodd"/><path fill="#023436" d="m108.36823 239.54822l40.250008 0l0 40.234375l-80.48438 0l0 -201.20312l80.48438 0l0 40.234375l-40.250008 0l0 120.734375zm120.72442 -120.734375l40.25 0l0 40.25l-40.25 0l0 -40.25zm-40.234375 40.25l40.234375 0l0 40.234375l40.25 0l0 -40.234375l40.234375 0l0 80.484375l-80.484375 0l0 40.234375l-40.234375 0l0 -120.71875zm40.234375 120.71875l40.25 0l0 40.234375l-40.25 0l0 -40.234375z" fill-rule="nonzero"/><path fill="#023436" d="m374.29288 258.7201q-1.28125 -0.953125 -3.6875 -1.703125q-2.40625 -0.75 -4.828125 -0.75q-2.453125 0 -4.171875 0.84375q-1.703125 0.828125 -2.828125 2.234375q-1.109375 1.390625 -1.625 3.21875q-0.5 1.8125 -0.5 3.78125q0 2.1875 0.609375 4.203125q0.625 2.015625 1.828125 3.53125q1.203125 1.5 2.96875 2.40625q1.765625 0.890625 4.125 0.890625q2.234375 0 4.609375 -0.953125q2.390625 -0.953125 3.953125 -2.40625l0.78125 3.640625q-1.5625 1.0 -4.28125 1.90625q-2.71875 0.890625 -5.796875 0.890625q-3.25 0 -5.6875 -1.109375q-2.4375 -1.125 -4.03125 -3.0q-1.59375 -1.875 -2.40625 -4.359375q-0.8125 -2.5 -0.8125 -5.3125q0 -2.6875 0.75 -5.109375q0.765625 -2.4375 2.390625 -4.3125q1.625 -1.890625 4.140625 -2.96875q2.515625 -1.09375 6.046875 -1.09375q2.6875 0 5.265625 0.609375q2.578125 0.609375 4.140625 1.625l-0.953125 3.296875zm24.25 21.0625l-0.453125 -4.59375l-0.21875 0q-0.671875 1.0625 -1.796875 2.015625q-1.109375 0.953125 -2.484375 1.6875q-1.375 0.71875 -2.96875 1.140625q-1.59375 0.421875 -3.171875 0.421875q-3.6875 0 -5.546875 -2.15625q-1.84375 -2.15625 -1.84375 -5.40625q0 -3.1875 1.625 -5.09375q1.625 -1.90625 3.96875 -2.859375q2.359375 -0.953125 4.96875 -1.234375q2.609375 -0.28125 4.5625 -0.28125l2.515625 0l0 -0.671875q0 -2.125 -0.59375 -3.234375q-0.578125 -1.125 -1.703125 -1.90625q-0.953125 -0.625 -2.046875 -0.875q-1.078125 -0.25 -2.875 -0.25q-2.359375 0 -4.15625 0.625q-1.78125 0.609375 -3.453125 1.609375l-0.90625 -3.359375q3.75 -2.171875 8.96875 -2.171875q2.0625 0 3.90625 0.359375q1.859375 0.359375 3.25 1.265625q1.625 1.0 2.578125 2.859375q0.953125 1.84375 0.953125 4.578125l0 17.53125l-3.078125 0zm-9.90625 -2.625q2.296875 0 4.859375 -1.453125q2.578125 -1.46875 4.203125 -4.203125l0 -5.21875l-0.5 0q-2.296875 0 -4.59375 0.171875q-2.296875 0.171875 -4.171875 0.84375q-1.875 0.671875 -3.046875 1.9375q-1.171875 1.25 -1.171875 3.4375q0 2.1875 1.203125 3.34375q1.203125 1.140625 3.21875 1.140625zm35.3255 -18.984375q-0.890625 -0.515625 -1.796875 -0.8125q-0.890625 -0.3125 -1.71875 -0.3125q-1.125 0 -2.140625 0.625q-1.0 0.609375 -1.84375 1.671875q-0.84375 1.0625 -1.484375 2.46875q-0.640625 1.390625 -0.984375 2.90625l0 15.0625l-3.90625 0l0 -25.765625l3.078125 0l0.4375 5.65625l0.234375 0q0.390625 -1.28125 1.03125 -2.453125q0.640625 -1.1875 1.5625 -2.078125q0.921875 -0.890625 2.09375 -1.421875q1.1875 -0.53125 2.703125 -0.53125q1.0625 0 2.234375 0.359375q1.171875 0.359375 1.6875 0.921875l-1.1875 3.703125zm19.94513 22.28125q-3.59375 0 -6.171875 -1.59375q-2.5625 -1.59375 -3.90625 -3.671875l-0.234375 0l-0.4375 4.59375l-3.078125 0l0 -41.4375l3.90625 0l0 20.5q0.734375 -2.421875 3.1875 -4.03125q2.46875 -1.625 6.109375 -1.625q2.96875 0 5.203125 1.125q2.25 1.109375 3.734375 2.984375q1.484375 1.875 2.234375 4.40625q0.765625 2.515625 0.765625 5.25q0 2.6875 -0.703125 5.125q-0.703125 2.4375 -2.109375 4.296875q-1.390625 1.84375 -3.515625 2.96875q-2.125 1.109375 -4.984375 1.109375zm-0.453125 -3.296875q2.125 0 3.578125 -0.890625q1.46875 -0.90625 2.359375 -2.328125q0.890625 -1.4375 1.28125 -3.21875q0.40625 -1.796875 0.40625 -3.59375q0 -2.359375 -0.59375 -4.3125q-0.59375 -1.953125 -1.65625 -3.359375q-1.0625 -1.40625 -2.640625 -2.1875q-1.5625 -0.78125 -3.453125 -0.78125q-2.96875 0 -5.359375 1.796875q-2.375 1.78125 -3.390625 4.984375l0 8.234375q1.625 2.6875 4.203125 4.171875q2.578125 1.484375 5.265625 1.484375zm30.137482 -23.96875q3.40625 0 5.875 1.15625q2.46875 1.140625 4.0625 3.078125q1.59375 1.921875 2.34375 4.421875q0.765625 2.484375 0.765625 5.21875q0 2.75 -0.765625 5.1875q-0.75 2.4375 -2.328125 4.265625q-1.5625 1.8125 -4.0 2.875q-2.4375 1.0625 -5.734375 1.0625q-3.421875 0 -5.921875 -1.109375q-2.484375 -1.125 -4.109375 -3.0q-1.625 -1.875 -2.40625 -4.34375q-0.78125 -2.46875 -0.78125 -5.203125q0 -2.75 0.78125 -5.203125q0.78125 -2.46875 2.375 -4.34375q1.609375 -1.890625 4.0625 -2.96875q2.46875 -1.09375 5.78125 -1.09375zm0.15625 24.296875q2.25 0 3.890625 -0.828125q1.65625 -0.84375 2.75 -2.265625q1.09375 -1.4375 1.59375 -3.3125q0.5 -1.875 0.5 -3.953125q0 -2.125 -0.53125 -4.078125q-0.53125 -1.96875 -1.65625 -3.453125q-1.109375 -1.484375 -2.828125 -2.375q-1.703125 -0.90625 -4.046875 -0.90625q-2.296875 0 -3.921875 0.84375q-1.625 0.84375 -2.6875 2.25q-1.0625 1.390625 -1.578125 3.265625q-0.5 1.875 -0.5 3.953125q0 2.125 0.53125 4.09375q0.53125 1.953125 1.625 3.46875q1.09375 1.5 2.796875 2.40625q1.71875 0.890625 4.0625 0.890625zm45.198547 -24.296875q4.921875 0 7.609375 2.5q2.6875 2.484375 2.6875 7.015625q0 0.953125 -0.109375 1.9375q-0.109375 0.96875 -0.390625 1.421875l-18.87503 0l0 0.5625q0 2.125 0.5625 4.09375q0.5625 1.953125 1.6719055 3.46875q1.125 1.5 2.828125 2.40625q1.71875 0.890625 4.0625 0.890625q1.34375 0 2.625 -0.296875q1.296875 -0.3125 2.46875 -0.78125q1.1875 -0.484375 2.1875 -1.046875q1.015625 -0.5625 1.796875 -1.125l0.671875 3.1875q-0.734375 0.453125 -1.796875 0.984375q-1.0625 0.53125 -2.359375 0.984375q-1.28125 0.453125 -2.828125 0.75q-1.53125 0.3125 -3.203125 0.3125q-3.140625 0 -5.546875 -1.09375q-2.4062805 -1.09375 -4.0312805 -2.96875q-1.625 -1.875 -2.46875 -4.328125q-0.84375 -2.46875 -0.84375 -5.15625q0 -2.75 0.875 -5.234375q0.875 -2.5 2.546875 -4.40625q1.6875 -1.90625 4.1719055 -2.984375q2.5 -1.09375 5.6875 -1.09375zm-0.171875 3.125q-3.6875 0 -5.734375 1.9375q-2.0469055 1.9375 -2.7812805 4.84375l15.2969055 0q0.046875 -0.28125 0.046875 -0.5q0 -0.234375 0 -0.515625q0 -1.390625 -0.5625 -2.484375q-0.546875 -1.09375 -1.5 -1.8125q-0.953125 -0.734375 -2.1875 -1.09375q-1.234375 -0.375 -2.578125 -0.375zm35.670715 23.46875l0 -17.03125q0 -3.359375 -1.515625 -4.8125q-1.5 -1.453125 -3.859375 -1.453125q-1.390625 0 -2.765625 0.453125q-1.375 0.4375 -2.5625 1.3125q-1.171875 0.875 -2.0625 2.140625q-0.890625 1.25 -1.40625 2.875l0 16.515625l-3.90625 0l0 -25.765625l3.078125 0l0.4375 4.828125l0.234375 0q0.71875 -2.359375 3.234375 -4.0q2.53125 -1.65625 6.28125 -1.65625q1.796875 0 3.390625 0.484375q1.59375 0.46875 2.765625 1.53125q1.171875 1.0625 1.875 2.796875q0.703125 1.734375 0.703125 4.25l0 17.53125l-3.921875 0zm23.973145 -26.59375q4.921875 0 7.609375 2.5q2.6875 2.484375 2.6875 7.015625q0 0.953125 -0.109375 1.9375q-0.109375 0.96875 -0.390625 1.421875l-18.875 0l0 0.5625q0 2.125 0.5625 4.09375q0.5625 1.953125 1.671875 3.46875q1.125 1.5 2.828125 2.40625q1.71875 0.890625 4.0625 0.890625q1.34375 0 2.625 -0.296875q1.296875 -0.3125 2.46875 -0.78125q1.1875 -0.484375 2.1875 -1.046875q1.015625 -0.5625 1.796875 -1.125l0.671875 3.1875q-0.734375 0.453125 -1.796875 0.984375q-1.0625 0.53125 -2.359375 0.984375q-1.28125 0.453125 -2.828125 0.75q-1.53125 0.3125 -3.203125 0.3125q-3.140625 0 -5.546875 -1.09375q-2.40625 -1.09375 -4.03125 -2.96875q-1.625 -1.875 -2.46875 -4.328125q-0.84375 -2.46875 -0.84375 -5.15625q0 -2.75 0.875 -5.234375q0.875 -2.5 2.546875 -4.40625q1.6875 -1.90625 4.171875 -2.984375q2.5 -1.09375 5.6875 -1.09375zm-0.171875 3.125q-3.6875 0 -5.734375 1.9375q-2.046875 1.9375 -2.78125 4.84375l15.296875 0q0.046875 -0.28125 0.046875 -0.5q0 -0.234375 0 -0.515625q0 -1.390625 -0.5625 -2.484375q-0.546875 -1.09375 -1.5 -1.8125q-0.953125 -0.734375 -2.1875 -1.09375q-1.234375 -0.375 -2.578125 -0.375zm31.46759 1.859375q-0.890625 -0.515625 -1.796875 -0.8125q-0.890625 -0.3125 -1.71875 -0.3125q-1.125 0 -2.140625 0.625q-1.0 0.609375 -1.84375 1.671875q-0.84375 1.0625 -1.484375 2.46875q-0.640625 1.390625 -0.984375 2.90625l0 15.0625l-3.90625 0l0 -25.765625l3.078125 0l0.4375 5.65625l0.234375 0q0.390625 -1.28125 1.03125 -2.453125q0.640625 -1.1875 1.5625 -2.078125q0.921875 -0.890625 2.09375 -1.421875q1.1875 -0.53125 2.703125 -0.53125q1.0625 0 2.234375 0.359375q1.171875 0.359375 1.6875 0.921875l-1.1875 3.703125zm9.40863 13.65625q-2.6875 -1.0625 -3.859375 -3.375q-1.171875 -2.328125 -1.171875 -5.03125q0 -2.171875 0.71875 -4.015625q0.734375 -1.859375 2.109375 -3.25q1.375 -1.40625 3.296875 -2.1875q1.9375 -0.78125 4.40625 -0.78125q1.453125 0 2.875 0.28125q1.4375 0.265625 2.5 0.828125q2.34375 -0.046875 4.390625 -0.265625q2.046875 -0.234375 3.828125 -0.734375l0.28125 0.21875l-0.390625 3.078125l-0.28125 0.28125l-5.09375 -0.21875l-0.046875 0.171875q1.453125 1.171875 2.125 3.078125q0.671875 1.90625 0.671875 3.6875q0 1.84375 -0.703125 3.53125q-0.703125 1.6875 -2.046875 2.953125q-1.34375 1.25 -3.328125 2.015625q-1.984375 0.75 -4.5625 0.75q-0.625 0 -1.078125 -0.03125q-0.4375 -0.03125 -0.828125 -0.03125q-1.171875 0.390625 -1.765625 1.0625q-0.578125 0.671875 -0.578125 1.125q0 0.5625 0.75 0.984375q0.75 0.40625 2.4375 0.578125l5.421875 0.5625q1.859375 0.171875 3.453125 0.765625q1.59375 0.578125 2.765625 1.5q1.1875 0.921875 1.875 2.234375q0.703125 1.328125 0.703125 3.0q0 1.625 -0.734375 3.328125q-0.71875 1.71875 -2.171875 2.953125q-1.453125 1.21875 -4.03125 2.0q-2.578125 0.796875 -5.9375 0.796875q-2.859375 0 -5.125 -0.59375q-2.265625 -0.578125 -3.8125 -1.625q-1.53125 -1.03125 -2.34375 -2.375q-0.8125 -1.34375 -0.8125 -2.859375q0 -1.125 0.4375 -2.21875q0.453125 -1.078125 1.171875 -2.03125q0.734375 -0.953125 1.71875 -1.6875q0.984375 -0.71875 2.046875 -1.109375l0 -0.234375q-2.296875 -1.0625 -2.296875 -2.90625q0 -1.171875 0.859375 -2.125q0.875 -0.953125 2.15625 -1.859375l0 -0.21875zm5.71875 -1.796875q1.5625 0 2.765625 -0.53125q1.203125 -0.53125 2.046875 -1.390625q0.84375 -0.875 1.28125 -2.046875q0.453125 -1.171875 0.453125 -2.46875q0 -1.28125 -0.453125 -2.625q-0.4375 -1.34375 -1.3125 -2.4375q-0.859375 -1.09375 -2.15625 -1.765625q-1.28125 -0.671875 -2.96875 -0.671875q-1.625 0 -2.828125 0.640625q-1.203125 0.640625 -2.015625 1.65625q-0.8125 1.0 -1.203125 2.234375q-0.390625 1.234375 -0.390625 2.46875q0 1.28125 0.421875 2.515625q0.421875 1.234375 1.28125 2.21875q0.875 0.984375 2.125 1.59375q1.265625 0.609375 2.953125 0.609375zm-1.796875 10.03125q-1.28125 0 -2.375 0.5q-1.09375 0.5 -1.90625 1.28125q-0.8125 0.796875 -1.296875 1.765625q-0.46875 0.984375 -0.46875 1.9375q0 2.125 2.265625 3.390625q2.265625 1.265625 6.140625 1.265625q1.84375 0 3.4375 -0.3125q1.59375 -0.3125 2.734375 -0.953125q1.15625 -0.640625 1.828125 -1.578125q0.671875 -0.921875 0.671875 -2.203125q0 -2.515625 -2.71875 -3.609375q-2.703125 -1.09375 -8.3125 -1.484375zm33.213623 -0.0625q-0.84375 1.796875 -2.015625 4.234375q-1.171875 2.4375 -2.796875 4.609375q-1.625 2.1875 -3.8125 3.734375q-2.1875 1.546875 -4.921875 1.546875q-0.453125 0 -0.6875 -0.03125q-0.21875 -0.03125 -0.5 -0.140625l-0.71875 -3.703125q0.15625 0.0625 0.375 0.109375q0.234375 0.0625 0.796875 0.0625q1.125 0 2.09375 -0.234375q0.984375 -0.21875 1.9375 -0.890625q1.953125 -1.390625 3.546875 -4.078125q1.609375 -2.6875 2.890625 -6.28125l-12.875 -24.921875l4.640625 0l10.25 21.453125l9.1875 -21.453125l4.421875 0l-11.8125 25.984375z" fill-rule="nonzero"/></g></svg>