<svg version="1.1" viewBox="0.0 0.0 1856.5800524934384 685.5275590551181" fill="none" stroke="none" stroke-linecap="square" stroke-miterlimit="10" xmlns:xlink="http://www.w3.org/1999/xlink" xmlns="http://www.w3.org/2000/svg"><clipPath id="p.0"><path d="m0 0l1856.5801 0l0 685.5276l-1856.5801 0l0 -685.5276z" clip-rule="nonzero"/></clipPath><g clip-path="url(#p.0)"><path fill="#000000" fill-opacity="0.0" d="m0 0l1856.5801 0l0 685.5276l-1856.5801 0z" fill-rule="evenodd"/><path fill="#000000" fill-opacity="0.0" d="m40.52494 -123.72179l1789.7323 0l0 631.30707l-1789.7323 0z" fill-rule="evenodd"/><path fill="#023436" d="m140.58745 446.66928l86.0625 0l0 86.06247l-172.125 0l0 -430.29688l172.125 0l0 86.0625l-86.0625 0l0 258.17188zm258.1789 -258.17188l86.0625 0l0 86.062515l-86.0625 0l0 -86.062515zm-86.0625 86.062515l86.0625 0l0 86.046875l86.0625 0l0 -86.046875l86.046936 0l0 172.10938l-172.10944 0l0 86.06247l-86.0625 0l0 -258.17184zm86.0625 258.17184l86.0625 0l0 86.0625l-86.0625 0l0 -86.0625z" fill-rule="nonzero"/><path fill="#023436" d="m744.3487 457.52866q-4.609375 -3.390625 -13.21875 -6.09375q-8.59375 -2.703125 -17.1875 -2.703125q-8.796875 0 -14.90625 3.0q-6.09375 3.0 -10.09375 8.0q-4.0 5.0 -5.796875 11.5q-1.796875 6.5 -1.796875 13.5q0 7.796875 2.1875 15.0q2.203125 7.203125 6.5 12.6093445q4.3125 5.390625 10.609375 8.59375q6.296875 3.203125 14.703125 3.203125q8.0 0 16.5 -3.40625q8.5 -3.40625 14.09375 -8.59375l2.796875 13.0q-5.59375 3.59375 -15.296875 6.796875q-9.703125 3.203125 -20.703125 3.203125q-11.59375 0 -20.296875 -4.0q-8.703125 -4.0 -14.40625 -10.703125q-5.6875 -6.703125 -8.59375 -15.5937195q-2.90625 -8.90625 -2.90625 -18.90625q0 -9.609375 2.703125 -18.296875q2.703125 -8.703125 8.5 -15.40625q5.796875 -6.703125 14.796875 -10.59375q9.0 -3.90625 21.609375 -3.90625q9.59375 0 18.796875 2.203125q9.203125 2.203125 14.796875 5.796875l-3.390625 11.796875zm86.59375 75.203094l-1.59375 -16.40625l-0.8125 0q-2.390625 3.8125 -6.390625 7.21875q-4.0 3.390625 -8.90625 6.0q-4.890625 2.59375 -10.59375 4.09375q-5.703125 1.5 -11.296875 1.5q-13.203125 0 -19.8125 -7.703125q-6.59375 -7.703125 -6.59375 -19.296844q0 -11.40625 5.796875 -18.203125q5.796875 -6.796875 14.203125 -10.203125q8.40625 -3.40625 17.703125 -4.40625q9.296875 -1.0 16.296875 -1.0l9.0 0l0 -2.390625q0 -7.609375 -2.109375 -11.609375q-2.09375 -4.0 -6.09375 -6.796875q-3.390625 -2.203125 -7.296875 -3.09375q-3.90625 -0.90625 -10.296875 -0.90625q-8.40625 0 -14.8125 2.203125q-6.390625 2.203125 -12.390625 5.796875l-3.203125 -12.0q13.40625 -7.796875 32.0 -7.796875q7.40625 0 14.0 1.296875q6.609375 1.296875 11.609375 4.5q5.796875 3.609375 9.1875 10.203125q3.40625 6.59375 3.40625 16.40625l0 62.59372l-11.0 0zm-35.40625 -9.40625q8.203125 0 17.40625 -5.1875q9.203125 -5.203125 15.0 -14.9999695l0 -18.609375l-1.796875 0q-8.203125 0 -16.40625 0.609375q-8.203125 0.59375 -14.90625 3.0q-6.6875 2.390625 -10.890625 6.890625q-4.203125 4.5 -4.203125 12.296875q0 7.8124695 4.296875 11.9062195q4.3125 4.09375 11.5 4.09375zm126.20941 -67.796844q-3.203125 -1.796875 -6.40625 -2.890625q-3.203125 -1.109375 -6.203125 -1.109375q-4.0 0 -7.59375 2.203125q-3.59375 2.203125 -6.59375 6.0q-3.0 3.796875 -5.3125 8.796875q-2.296875 5.0 -3.5 10.40625l0 53.796844l-14.0 0l0 -91.99997l11.0 0l1.609375 20.203125l0.796875 0q1.40625 -4.609375 3.703125 -8.796875q2.296875 -4.203125 5.59375 -7.40625q3.296875 -3.203125 7.5 -5.09375q4.203125 -1.90625 9.609375 -1.90625q3.796875 0 7.984375 1.296875q4.203125 1.296875 6.015625 3.296875l-4.203125 13.203125zm71.1969 79.609344q-12.796875 0 -22.0 -5.703125q-9.203125 -5.703125 -14.0 -13.109375l-0.796875 0l-1.609375 16.40625l-11.0 0l0 -147.99997l14.0 0l0 73.203125q2.609375 -8.609375 11.40625 -14.40625q8.796875 -5.796875 21.796875 -5.796875q10.609375 0 18.609375 4.0q8.0 4.0 13.296875 10.703125q5.296875 6.703125 8.0 15.703125q2.703125 9.0 2.703125 18.796875q0 9.59375 -2.5 18.296875q-2.5 8.7030945 -7.5 15.3124695q-5.0 6.59375 -12.609375 10.59375q-7.59375 4.0 -17.796875 4.0zm-1.59375 -11.8125q7.59375 0 12.796875 -3.1875q5.203125 -3.203125 8.390625 -8.2968445q3.203125 -5.109375 4.59375 -11.5q1.40625 -6.40625 1.40625 -12.8125q0 -8.390625 -2.09375 -15.390625q-2.09375 -7.0 -5.90625 -12.0q-3.796875 -5.0 -9.40625 -7.796875q-5.59375 -2.8125 -12.390625 -2.8125q-10.59375 0 -19.09375 6.40625q-8.5 6.390625 -12.109375 17.796875l0 29.40625q5.8125 9.5937195 15.0 14.8905945q9.203125 5.296875 18.8125 5.296875zm107.59375 -85.59372q12.203125 0 21.0 4.109375q8.796875 4.09375 14.5 11.0q5.703125 6.890625 8.390625 15.796875q2.703125 8.890625 2.703125 18.6875q0 9.8125 -2.703125 18.515625q-2.6875 8.6874695 -8.296875 15.1874695q-5.59375 6.5 -14.296875 10.3125q-8.703125 3.796875 -20.5 3.796875q-12.203125 0 -21.109375 -4.0q-8.890625 -4.0 -14.6875 -10.703125q-5.796875 -6.703125 -8.609375 -15.4999695q-2.796875 -8.796875 -2.796875 -18.609375q0 -9.796875 2.796875 -18.59375q2.8125 -8.796875 8.5 -15.5q5.703125 -6.703125 14.5 -10.59375q8.8125 -3.90625 20.609375 -3.90625zm0.59375 86.796844q8.0 0 13.90625 -3.0q5.90625 -3.0 9.796875 -8.09375q3.90625 -5.1093445 5.703125 -11.7968445q1.796875 -6.703125 1.796875 -14.109375q0 -7.59375 -1.90625 -14.59375q-1.890625 -7.0 -5.890625 -12.296875q-4.0 -5.3125 -10.109375 -8.5q-6.09375 -3.203125 -14.484375 -3.203125q-8.203125 0 -14.015625 3.0q-5.796875 3.0 -9.59375 8.0q-3.796875 5.0 -5.59375 11.703125q-1.796875 6.6875 -1.796875 14.09375q0 7.59375 1.890625 14.59375q1.90625 7.0 5.796875 12.4062195q3.90625 5.40625 10.0 8.609375q6.109375 3.1875 14.5 3.1875zm161.4032 -86.796844q17.609375 0 27.203125 8.90625q9.59375 8.890625 9.59375 25.09375q0 3.40625 -0.40625 6.90625q-0.390625 3.5 -1.390625 5.09375l-67.390625 0l0 2.0q0 7.59375 2.0 14.59375q2.0 7.0 6.0 12.4062195q4.0 5.40625 10.09375 8.609375q6.09375 3.1875 14.5 3.1875q4.796875 0 9.390625 -1.09375q4.609375 -1.109375 8.8125 -2.796875q4.203125 -1.703125 7.796875 -3.703125q3.59375 -2.0 6.40625 -4.0l2.390625 11.390625q-2.59375 1.609375 -6.40625 3.515625q-3.796875 1.890625 -8.390625 3.5q-4.59375 1.59375 -10.09375 2.6875q-5.5 1.109375 -11.5 1.109375q-11.203125 0 -19.8125 -3.90625q-8.59375 -3.90625 -14.390625 -10.59375q-5.796875 -6.703125 -8.796875 -15.4999695q-3.0 -8.8125 -3.0 -18.40625q0 -9.796875 3.09375 -18.6875q3.09375 -8.90625 9.09375 -15.703125q6.0 -6.8125 14.90625 -10.703125q8.90625 -3.90625 20.296875 -3.90625zm-0.59375 11.203125q-13.203125 0 -20.5 6.90625q-7.296875 6.890625 -9.90625 17.296875l54.609375 0q0.1875 -1.0 0.1875 -1.796875q0 -0.8125 0 -1.8125q0 -5.0 -2.0 -8.890625q-2.0 -3.90625 -5.40625 -6.5q-3.390625 -2.609375 -7.796875 -3.90625q-4.390625 -1.296875 -9.1875 -1.296875zm127.3999 83.796844l0 -60.796844q0 -12.0 -5.40625 -17.203125q-5.390625 -5.203125 -13.796875 -5.203125q-5.0 0 -9.90625 1.609375q-4.890625 1.59375 -9.09375 4.703125q-4.203125 3.09375 -7.40625 7.59375q-3.1875 4.5 -5.0 10.296875l0 58.99997l-14.0 0l0 -91.99997l11.0 0l1.609375 17.203125l0.796875 0q2.59375 -8.40625 11.59375 -14.296875q9.0 -5.90625 22.40625 -5.90625q6.40625 0 12.09375 1.703125q5.703125 1.703125 9.90625 5.5q4.203125 3.796875 6.703125 10.0q2.5 6.203125 2.5 15.203125l0 62.59372l-14.0 0zm85.59387 -94.99997q17.609375 0 27.203125 8.90625q9.59375 8.890625 9.59375 25.09375q0 3.40625 -0.40625 6.90625q-0.390625 3.5 -1.390625 5.09375l-67.390625 0l0 2.0q0 7.59375 2.0 14.59375q2.0 7.0 6.0 12.4062195q4.0 5.40625 10.09375 8.609375q6.09375 3.1875 14.5 3.1875q4.796875 0 9.390625 -1.09375q4.609375 -1.109375 8.8125 -2.796875q4.203125 -1.703125 7.796875 -3.703125q3.59375 -2.0 6.40625 -4.0l2.390625 11.390625q-2.59375 1.609375 -6.40625 3.515625q-3.796875 1.890625 -8.390625 3.5q-4.59375 1.59375 -10.09375 2.6875q-5.5 1.109375 -11.5 1.109375q-11.203125 0 -19.8125 -3.90625q-8.59375 -3.90625 -14.390625 -10.59375q-5.796875 -6.703125 -8.796875 -15.4999695q-3.0 -8.8125 -3.0 -18.40625q0 -9.796875 3.09375 -18.6875q3.09375 -8.90625 9.09375 -15.703125q6.0 -6.8125 14.90625 -10.703125q8.90625 -3.90625 20.296875 -3.90625zm-0.59375 11.203125q-13.203125 0 -20.5 6.90625q-7.296875 6.890625 -9.90625 17.296875l54.609375 0q0.1875 -1.0 0.1875 -1.796875q0 -0.8125 0 -1.8125q0 -5.0 -2.0 -8.890625q-2.0 -3.90625 -5.40625 -6.5q-3.390625 -2.609375 -7.796875 -3.90625q-4.390625 -1.296875 -9.1875 -1.296875zm112.400024 6.59375q-3.203125 -1.796875 -6.40625 -2.890625q-3.203125 -1.109375 -6.203125 -1.109375q-4.0 0 -7.59375 2.203125q-3.59375 2.203125 -6.59375 6.0q-3.0 3.796875 -5.3125 8.796875q-2.296875 5.0 -3.5 10.40625l0 53.796844l-14.0 0l0 -91.99997l11.0 0l1.609375 20.203125l0.796875 0q1.40625 -4.609375 3.703125 -8.796875q2.296875 -4.203125 5.59375 -7.40625q3.296875 -3.203125 7.5 -5.09375q4.203125 -1.90625 9.609375 -1.90625q3.796875 0 7.984375 1.296875q4.203125 1.296875 6.015625 3.296875l-4.203125 13.203125zm33.600098 48.796875q-9.609375 -3.796875 -13.8125 -12.09375q-4.1875 -8.296875 -4.1875 -17.90625q0 -7.796875 2.59375 -14.390625q2.609375 -6.609375 7.5 -11.609375q4.90625 -5.0 11.796875 -7.796875q6.90625 -2.796875 15.703125 -2.796875q5.203125 0 10.296875 1.0q5.109375 1.0 8.90625 3.0q8.40625 -0.203125 15.703125 -1.0q7.296875 -0.796875 13.703125 -2.59375l1.0 0.796875l-1.40625 11.0l-1.0 1.0l-18.203125 -0.796875l-0.203125 0.59375q5.203125 4.203125 7.59375 11.0q2.40625 6.796875 2.40625 13.203125q0 6.59375 -2.5 12.59375q-2.5 6.0 -7.296875 10.5q-4.796875 4.5 -11.90625 7.203125q-7.09375 2.703125 -16.296875 2.703125q-2.1875 0 -3.796875 -0.09375q-1.59375 -0.109375 -3.0 -0.109375q-4.203125 1.40625 -6.296875 3.8125q-2.09375 2.3905945 -2.09375 3.9843445q0 2.0 2.6875 3.5q2.703125 1.5 8.703125 2.109375l19.40625 2.0q6.59375 0.59375 12.296875 2.703125q5.703125 2.09375 9.890625 5.390625q4.203125 3.296875 6.703125 8.0q2.5 4.703125 2.5 10.703125q0 5.796875 -2.59375 11.890625q-2.59375 6.109375 -7.796875 10.5q-5.203125 4.40625 -14.40625 7.203125q-9.203125 2.796875 -21.203125 2.796875q-10.1875 0 -18.296875 -2.09375q-8.09375 -2.09375 -13.59375 -5.796875q-5.5 -3.703125 -8.40625 -8.5q-2.890625 -4.796875 -2.890625 -10.203125q0 -4.0 1.59375 -7.90625q1.59375 -3.890625 4.1875 -7.296875q2.609375 -3.390625 6.109375 -6.0q3.5 -2.59375 7.296875 -4.0l0 -0.796875q-8.1875 -3.796875 -8.1875 -10.40625q0 -4.1875 3.09375 -7.5937195q3.09375 -3.40625 7.703125 -6.59375l0 -0.8125zm20.390625 -6.390625q5.609375 0 9.90625 -1.890625q4.296875 -1.90625 7.296875 -5.0q3.0 -3.109375 4.59375 -7.3125q1.609375 -4.203125 1.609375 -8.796875q0 -4.609375 -1.609375 -9.40625q-1.59375 -4.796875 -4.703125 -8.6875q-3.09375 -3.90625 -7.6875 -6.296875q-4.59375 -2.40625 -10.59375 -2.40625q-5.8125 0 -10.109375 2.296875q-4.296875 2.296875 -7.203125 5.90625q-2.890625 3.59375 -4.296875 8.0q-1.390625 4.390625 -1.390625 8.796875q0 4.59375 1.5 9.0q1.5 4.390625 4.59375 7.890625q3.09375 3.5 7.59375 5.703125q4.5 2.203125 10.5 2.203125zm-6.390625 35.796844q-4.609375 0 -8.515625 1.796875q-3.890625 1.796875 -6.796875 4.59375q-2.890625 2.8125 -4.59375 6.3125q-1.703125 3.5 -1.703125 6.890625q0 7.609375 8.09375 12.109375q8.109375 4.5 21.90625 4.5q6.609375 0 12.296875 -1.109375q5.703125 -1.09375 9.796875 -3.390625q4.109375 -2.296875 6.5 -5.609375q2.40625 -3.296875 2.40625 -7.890625q0 -9.0 -9.703125 -12.90625q-9.6875 -3.890625 -29.6875 -5.296875zm118.599976 -0.203125q-3.0 6.40625 -7.203125 15.09375q-4.203125 8.703125 -10.0 16.5q-5.796875 7.8125 -13.609375 13.3125q-7.796875 5.5 -17.59375 5.5q-1.59375 0 -2.40625 -0.109375q-0.796875 -0.09375 -1.796875 -0.5l-2.59375 -13.1875q0.59375 0.1875 1.390625 0.390625q0.8125 0.203125 2.8125 0.203125q4.0 0 7.5 -0.796875q3.5 -0.796875 6.890625 -3.203125q7.0 -5.0 12.703125 -14.609375q5.703125 -9.59375 10.296875 -22.390625l-46.0 -88.99997l16.609375 0l36.59375 76.59372l32.796875 -76.59372l15.8125 0l-42.203125 92.796844z" fill-rule="nonzero"/></g></svg>